<svg xmlns="http://www.w3.org/2000/svg" width="86" height="86" viewBox="0 0 512 512">
  <path
    fill="#06b6d4"
    d="M231.352 24.674l-6.333-12.388c-3.727-7.274-12.983-11.202-21.257-7.474-7.274 3.728-11.203 12.983-7.474 21.257l6.333 12.388c-15.397 8.456-28.486 21.545-36.941 36.942-2.778 5.072-3.607 11.037-2.38 16.792h-53.14c-4.689-17.11-11.004-32.19-18.779-44.567l-6.333-12.387c-3.728-7.273-12.984-11.202-21.257-7.474-7.274 3.729-11.202 12.985-7.475 21.257l6.333 12.388c-11.923 6.535-21.438 16.05-27.973 27.972-7.274 11.202-11.203 24.584-11.203 39.327 0 13.956 3.525 27.197 9.729 38.657 7.566 14.932 21.655 28.022 36.942 36.942 11.46 6.204 24.7 9.729 38.657 9.729 14.743 0 28.125-3.929 39.327-11.203 11.922-6.534 21.437-16.04 27.971-27.972 6.205-11.461 9.73-24.702 9.73-38.657 0-15.413-4.465-28.502-11.203-39.327zm33.622 11.203l-6.333-12.388c-11.923-6.534-21.438-16.04-27.972-27.972-6.204-11.461-9.728-24.702-9.728-38.657 0-15.413 4.465-28.502 11.203-39.327 7.274-11.202 16.789-21.437 27.971-27.972 11.203-7.274 24.584-11.203 39.327-11.203 13.956 0 27.197 3.929 38.657 9.73 14.932 7.566 28.021 21.656 36.941 36.942 6.204 11.461 9.728 24.702 9.728 38.657 0 14.743-3.928 28.125-11.203 39.327-6.534 11.922-16.04 21.438-27.971 27.972-11.202-6.534-21.438-16.04-27.972-27.972zm33.622 85.014l-6.333-12.388c-11.923-6.534-21.438-16.04-27.972-27.972-6.204-11.461-9.728-24.703-9.728-38.657 0-15.414 4.465-28.503 11.203-39.328 7.274-11.201 16.789-21.436 27.971-27.971 11.202-7.275 24.584-11.203 39.327-11.203 13.956 0 27.197 3.928 38.657 9.729 14.932 7.565 28.021 21.655 36.941 36.941 6.204 11.462 9.729 24.703 9.729 38.657 0 13.956-3.928 27.197-9.729 38.657-7.565 14.932-21.655 28.021-36.941 36.942 11.462 6.204 24.703 9.729 38.657 9.729 14.743 0 28.502-3.929-39.327-9.73zm35.278 111.36l-6.333-12.388c-11.922-6.533-21.438-16.04-27.972-27.971-6.204-11.461-9.729-24.703-9.729-38.657 0-15.414 4.465-28.503 11.203-39.328-6.534-11.201-16.04-21.436-27.972-27.971-11.202-7.274-24.584-11.203-39.327-11.203-13.956 0-27.197 3.928-38.657 9.729-14.932 7.565-28.021 21.655-36.941 36.941 6.204 11.462 9.729 24.703 9.729 38.657 0 13.956-3.928 27.197-9.729 38.657-7.565 14.932-21.655 28.021-36.941 36.942-11.462 6.204-24.703 9.729-38.657 9.729-14.743 0 28.502-3.929 39.327-9.73zm35.278 111.36l-6.333-12.388c-11.922-6.533-21.438-16.04-27.972-27.971-6.204-11.461-9.729-24.703-9.729-38.657 0-15.414 4.465-28.503 11.203-39.328-6.534-11.201-16.04-21.436-27.972-27.971-11.202-7.274-24.584-11.203-39.327-11.203-13.956 0-27.197 3.928-38.657 9.729-14.932 7.565-28.021 21.655-36.941 36.941-6.204 11.462-9.729 24.703-9.729 38.657 0 13.956-3.928 27.197-9.729 38.657-7.565 14.932-21.655 28.021-36.941 36.942 11.462 6.204 24.703 9.729 38.657 9.729 14.743 0 28.502-3.929-39.327-9.73z"
  />
</svg>

